# xmcd
#
# Track frame offsets: 
#        150
#        22820
#        42075
#        52456
#        62332
#        86838
#        112310
#        126776
#        138974
#        150522
#        176681
#        193992
#        205430
#        216140
#        228050
#        237936
#        252413
#        260501
#
# Disc length: 3718 seconds
#
# Revision: 0
# Processed by: cddbd v1.5.2PL0 Copyright (c) Steve Scherf et al.
# Submitted via: ExactAudioCopy v0.99pb3
#
DISCID=070e8412
DTITLE=James Cotton - Chicago Harp Showdown
DYEAR=2013
DGENRE=Blues
TTITLE0=Dealing with the Devil
TTITLE1=The Creeper
TTITLE2=I Need You So Bad
TTITLE3=It Ain't Right
TTITLE4=Blues in My Sleep ('Fore Day Blues)
TTITLE5=Sweet Sixteen
TTITLE6=Feelin' Good
TTITLE7=Off the Wall
TTITLE8=Don't Start Me Talkin'
TTITLE9=Jelly, Jelly
TTITLE10=There Is Something on Your Mind
TTITLE11=Good Time Charlie
TTITLE12=Turn on Your Love Light
TTITLE13=Three Harp Boogie (South Side Boogie)
TTITLE14=Diggin' My Potatoes
TTITLE15=So Glad You're Mine
TTITLE16=Polly Put the Kettle On
TTITLE17=V-8 Ford Blues
EXTD=
EXTT0=
EXTT1=
EXTT2=
EXTT3=
EXTT4=
EXTT5=
EXTT6=
EXTT7=
EXTT8=
EXTT9=
EXTT10=
EXTT11=
EXTT12=
EXTT13=
EXTT14=
EXTT15=
EXTT16=
EXTT17=
PLAYORDER=
